<?xml version="1.0" encoding="UTF-8"?>
<svg version="1.1" viewBox="0 0 2048 1080" width="2560" height="1351" xmlns="http://www.w3.org/2000/svg">
<path transform="translate(1661,711)" d="m0 0h29l18 2 19 4 24 8 23 11 12 8 12 9 12 11 9 9 11 14 10 16 8 16 6 15 5 17 3 15 2 23v12l-2 23-5 23-6 18-10 21-10 16-13 16-17 17-13 10-14 9-15 8-21 8-23 6-22 3h-34l-23-3-23-6-18-7-16-8-16-10-11-9-10-9-10-10-13-17-9-15-8-16-6-17-5-19-3-20v-36l4-25 6-20 6-15 10-19 9-13 8-10 11-12 12-11 17-12 18-10 19-8 20-6 22-4zm2 91-15 3-15 6-10 6-10 8-10 10-9 14-7 16-4 18v24l4 18 5 12 6 11 7 9 4 5 8 7 14 9 16 7 14 3 9 1h11l15-2 16-5 14-7 14-11 10-11 8-13 5-11 4-14 2-21-2-18-3-12-7-16-9-13-7-8-14-11-15-8-17-5-6-1z" fill="#049FD9"/>
<path transform="translate(906,711)" d="m0 0h34l29 3 29 5 11 3 1 1v75l-11-2-25-5-14-2-13-1h-15l-17 2-15 5-9 6-5 7-1 3v11l5 10 7 6 16 8 44 14 18 8 14 8 10 8 10 9 11 14 8 16 5 16 2 18-1 21-4 19-8 19-8 12-8 10-8 7-12 9-16 9-21 8-21 5-12 2-11 1h-42l-34-3-33-5-6-2v-81l11 2 28 6 21 3 12 1h26l21-3 12-4 10-6 6-7 2-6v-13l-4-8-4-5-14-9-19-7-33-11-23-11-12-8-10-8-10-10-10-15-6-14-4-17-1-17 2-22 4-15 9-19 9-12 8-9 13-10 14-8 14-6 17-5 17-3z" fill="#049FD9"/>
<path transform="translate(360,711)" d="m0 0h30l26 3 25 5 14 4 1 1v95l-5-2-17-7-21-6-24-3h-17l-19 3-18 6-14 8-11 9-9 10-8 13-6 14-4 20v22l4 20 7 16 7 11 11 12 10 8 15 8 15 5 17 3h24l20-3 19-5 15-6 6-3h3v94l-7 3-26 6-19 3-12 1h-35l-17-2-23-5-21-7-21-10-17-11-13-10-7-7-5-4-7-8-10-13-11-18-8-17-6-18-5-24-2-24 1-27 4-24 6-20 6-15 10-19 10-14 12-14 11-11 17-13 15-9 16-8 19-7 19-5 18-3z" fill="#049FD9"/>
<path transform="translate(1297,711)" d="m0 0h30l27 3 24 5 14 4 1 1v95l-19-8-16-5-14-3-17-2h-17l-20 3-15 5-15 8-9 7-6 5-8 10-8 14-6 16-3 19v14l3 19 6 16 7 13 11 13 11 9 14 8 17 6 17 3h24l21-3 21-6 19-8h2v95l-23 6-21 4-19 2h-36l-22-3-25-6-20-8-16-8-16-10-11-9-10-9-10-10-10-13-10-16-10-21-5-15-4-17-3-20v-37l4-26 8-26 12-25 8-12 10-13 12-13 10-9 17-12 15-9 21-9 23-7 24-4z" fill="#049FD9"/>
<path transform="translate(526,1)" d="m0 0h17l10 3 11 7 8 9 6 13 1 6v484l-3 12-6 10-8 8-10 6-12 3h-11l-12-3-10-6-5-4-8-11-4-12v-490l5-13 7-9 8-7 11-5z" fill="#049FD9"/>
<path transform="translate(1505,1)" d="m0 0h17l10 3 10 6 7 7 6 10 3 9v490l-4 12-9 12-10 7-11 4-5 1h-11l-12-3-11-7-7-7-6-10-3-12v-484l2-9 6-11 7-8 11-7z" fill="#049FD9"/>
<path transform="translate(579,717)" d="m0 0h90v356h-90z" fill="#049FD9"/>
<path transform="translate(776,168)" d="m0 0 14 1 12 5 9 7 7 9 4 8 2 10v226l-3 11-4 8-9 10-11 7-11 3h-13l-11-3-9-5-8-7-7-11-3-10v-233l4-11 6-9 7-7 9-5 8-3z" fill="#049FD9"/>
<path transform="translate(1265,168)" d="m0 0 14 1 11 4 9 7 8 9 5 11 1 4v233l-4 12-8 11-9 7-8 4-9 2h-13l-13-4-10-7-8-9-5-10-2-9v-226l3-12 5-9 8-9 12-7z" fill="#049FD9"/>
<path transform="translate(1755,168)" d="m0 0 14 1 10 4 9 6 8 9 5 10 2 8v229l-4 13-6 9-5 5-8 6-10 4-5 1h-13l-13-4-9-6-8-8-6-12-2-8v-229l4-13 7-10 9-8 11-5z" fill="#049FD9"/>
<path transform="translate(286,168)" d="m0 0 14 1 12 5 8 6 7 8 5 10 2 8v229l-4 13-6 9-8 8-12 6-8 2h-13l-13-4-9-6-5-5-6-8-4-10-1-5v-229l4-13 7-10 9-8 11-5z" fill="#049FD9"/>
<path transform="translate(1016,291)" d="m0 0h16l10 3 10 6 8 8 6 10 3 12v104l-4 14-7 10-10 9-12 5-5 1h-14l-13-4-10-7-8-9-4-8-3-11v-104l3-12 6-10 9-9 11-6z" fill="#049FD9"/>
<path transform="translate(2e3 291)" d="m0 0h15l10 3 10 6 5 4 7 10 4 10 1 5v106l-4 13-6 9-8 8-12 6-8 2h-13l-13-4-9-6-5-5-5-6-4-8-2-8v-108l3-10 5-9 7-8 10-6 8-3z" fill="#049FD9"/>
<path transform="translate(37,291)" d="m0 0h15l10 3 9 5 8 7 6 10 3 7 1 5v108l-4 12-6 9-5 5-8 6-10 4-5 1h-13l-13-4-9-6-8-8-6-12-2-8v-106l4-13 6-9 5-5 8-6 10-4z" fill="#049FD9"/>
</svg>
